<?xml version="1.0" standalone="no"?>
<!DOCTYPE svg PUBLIC "-//W3C//DTD SVG 20010904//EN"
 "http://www.w3.org/TR/2001/REC-SVG-20010904/DTD/svg10.dtd">
<svg version="1.0" xmlns="http://www.w3.org/2000/svg"
 width="800px" height="800px" viewBox="0 0 493.000000 516.000000"
 preserveAspectRatio="xMidYMid meet">

<g transform="translate(0.000000,516.000000) scale(0.100000,-0.100000)"
fill="#000000" stroke="none">
<path d="M2750 5060 c0 -5 -16 -10 -35 -10 -19 0 -35 -4 -35 -8 0 -5 -25 -14
-55 -21 -36 -8 -55 -17 -55 -27 0 -8 -13 -20 -30 -25 -16 -6 -30 -15 -30 -20
0 -5 -7 -9 -15 -9 -7 0 -18 -6 -22 -14 -4 -7 -22 -21 -40 -30 -17 -8 -35 -25
-38 -37 -7 -23 -40 -59 -53 -59 -4 0 -14 -16 -21 -35 -7 -19 -16 -35 -21 -35
-4 0 -11 -20 -14 -45 -4 -27 -12 -45 -20 -45 -8 0 -16 -19 -20 -52 -14 -118
-3 -288 19 -288 7 0 15 -18 19 -40 3 -22 10 -40 15 -40 5 0 14 -20 20 -45 7
-26 17 -45 25 -45 14 0 26 -21 26 -44 0 -9 -24 -15 -77 -19 -105 -7 -243 -30
-243 -39 0 -4 -11 -8 -25 -8 -14 0 -25 -4 -25 -9 0 -4 -34 -16 -75 -26 -41 -9
-75 -20 -75 -24 0 -4 -22 -14 -50 -21 -28 -7 -50 -17 -50 -22 0 -4 -7 -8 -15
-8 -7 0 -18 -6 -22 -13 -4 -8 -32 -22 -60 -32 -29 -11 -53 -23 -53 -27 0 -4
-7 -8 -15 -8 -8 0 -15 -4 -15 -9 0 -10 -38 -34 -72 -47 -10 -3 -18 -12 -18
-19 0 -7 -8 -16 -17 -19 -35 -12 -64 -34 -90 -65 -14 -17 -31 -31 -38 -31 -7
0 -21 -12 -31 -26 -30 -41 -62 -74 -72 -74 -5 0 -15 -11 -22 -25 -7 -14 -17
-25 -21 -25 -4 0 -10 -11 -13 -25 -4 -14 -13 -25 -21 -25 -8 0 -15 -9 -15 -20
0 -11 -8 -28 -19 -39 -10 -10 -24 -35 -31 -55 -6 -20 -18 -36 -25 -36 -7 0
-17 -15 -20 -32 -4 -18 -11 -36 -16 -39 -5 -3 -15 -29 -21 -57 -7 -29 -18 -52
-24 -52 -6 0 -14 -18 -18 -40 -3 -22 -10 -40 -15 -40 -4 0 -14 -40 -22 -90 -7
-49 -17 -90 -21 -90 -4 0 -8 -20 -8 -45 0 -25 -4 -45 -10 -45 -6 0 -10 -28
-10 -65 0 -37 -4 -65 -10 -65 -6 0 -10 -68 -10 -185 0 -117 4 -185 10 -185 6
0 10 -33 10 -80 0 -47 4 -80 10 -80 6 0 10 -18 10 -40 0 -22 4 -40 8 -40 4 0
13 -37 21 -82 7 -46 16 -85 21 -88 5 -3 12 -25 16 -48 4 -25 12 -42 20 -42 8
0 16 -16 20 -41 4 -22 13 -46 20 -53 7 -8 16 -25 20 -40 3 -14 12 -26 19 -26
7 0 18 -13 24 -30 5 -16 14 -30 18 -30 5 0 14 -15 21 -34 7 -19 21 -36 32 -39
11 -3 20 -13 20 -22 0 -18 38 -54 58 -55 6 0 12 -9 12 -19 0 -11 15 -28 35
-41 19 -12 35 -26 35 -31 0 -5 5 -9 11 -9 7 0 26 -15 43 -32 17 -18 45 -40 61
-48 17 -8 34 -21 38 -27 4 -7 17 -13 27 -13 11 0 20 -4 20 -9 0 -12 50 -37 90
-46 16 -4 30 -13 30 -21 0 -8 7 -14 15 -14 28 0 95 -32 95 -46 0 -8 5 -14 10
-14 6 0 10 -7 10 -15 0 -8 -4 -15 -10 -15 -5 0 -10 -11 -10 -25 0 -14 -4 -25
-10 -25 -5 0 -10 -6 -10 -14 0 -10 -16 -17 -45 -22 -25 -3 -45 -10 -45 -14 0
-4 -38 -15 -85 -25 -47 -10 -85 -21 -85 -26 0 -5 -9 -9 -20 -9 -11 0 -20 -3
-20 -8 0 -4 -38 -18 -85 -31 -50 -14 -85 -29 -85 -36 0 -7 -10 -15 -22 -18
-54 -13 -111 -39 -134 -62 -14 -14 -30 -25 -37 -25 -7 0 -25 -11 -41 -25 -16
-14 -33 -25 -38 -25 -4 0 -26 -18 -49 -40 -22 -21 -49 -42 -59 -45 -10 -3 -23
-19 -28 -34 -6 -16 -20 -32 -31 -36 -12 -3 -21 -13 -21 -21 0 -8 -4 -14 -9
-14 -5 0 -14 -13 -21 -30 -7 -16 -16 -30 -21 -30 -5 0 -9 -9 -9 -20 0 -11 -4
-20 -10 -20 -5 0 -10 -11 -10 -25 0 -14 -4 -25 -10 -25 -5 0 -10 -20 -10 -45
0 -25 5 -45 10 -45 6 0 10 -7 10 -15 0 -8 5 -15 10 -15 6 0 10 -6 10 -14 0
-15 57 -46 84 -46 9 0 16 -7 16 -15 0 -13 193 -15 1680 -15 1419 0 1680 2
1680 14 0 7 12 16 28 20 15 3 38 15 52 27 23 20 25 28 25 111 0 50 -5 92 -10
96 -6 4 -17 26 -25 50 -7 23 -17 42 -22 42 -4 0 -8 6 -8 14 0 8 -9 18 -21 21
-11 4 -25 20 -31 36 -5 15 -18 31 -28 34 -10 3 -31 18 -47 33 -16 15 -40 34
-52 42 -13 8 -35 25 -49 37 -15 13 -35 23 -45 23 -10 0 -20 7 -23 15 -4 8 -12
15 -20 15 -8 0 -14 4 -14 9 0 5 -34 20 -75 32 -41 13 -75 29 -75 35 0 12 -122
54 -154 54 -9 0 -16 5 -16 10 0 6 -7 10 -15 10 -8 0 -15 4 -15 8 0 5 -45 16
-100 27 -55 10 -100 22 -100 26 0 5 -6 9 -13 9 -36 0 -65 26 -71 61 -11 66 1
95 45 109 21 7 39 18 39 24 0 6 34 22 74 35 53 17 78 31 87 47 7 15 21 24 36
24 12 0 28 9 35 20 7 11 21 20 31 20 10 0 35 18 56 40 21 22 42 40 47 40 17 1
54 38 54 54 0 9 11 21 25 26 14 5 25 17 25 27 0 10 12 29 25 42 14 13 25 29
25 37 0 8 6 14 14 14 8 0 18 9 21 20 3 11 10 20 14 20 5 0 14 20 21 45 7 25
18 45 25 45 14 0 25 22 25 47 0 8 6 21 14 28 7 8 16 32 20 54 3 23 11 41 16
41 6 0 10 16 10 35 0 19 5 35 10 35 6 0 10 13 10 29 0 16 4 31 9 33 10 3 31
157 31 226 0 23 5 42 10 42 6 0 10 73 10 200 0 127 -4 200 -10 200 -5 0 -10
19 -10 43 0 68 -23 247 -32 247 -4 0 -8 11 -8 25 0 14 -4 25 -10 25 -5 0 -10
14 -10 30 0 17 -4 30 -9 30 -5 0 -15 25 -21 55 -6 30 -16 55 -21 55 -5 0 -9 9
-9 19 0 30 -11 51 -26 51 -8 0 -14 9 -14 20 0 23 -20 70 -37 88 -7 7 -13 22
-13 33 0 10 -5 19 -11 19 -16 0 -38 31 -39 53 0 10 -9 27 -20 39 -11 12 -20
29 -20 37 0 9 -12 22 -27 28 -16 7 -34 26 -41 43 -8 16 -20 30 -29 30 -8 0
-17 9 -20 20 -3 11 -8 20 -12 20 -3 0 -31 23 -61 50 -30 28 -65 53 -77 56 -13
4 -23 12 -23 18 0 7 -21 23 -47 36 -26 13 -58 34 -70 46 -12 12 -36 25 -53 29
-17 4 -34 13 -36 20 -3 7 -21 16 -40 19 -19 4 -34 11 -34 16 0 5 -20 15 -45
21 -25 6 -45 15 -45 19 0 5 -34 16 -75 26 -41 10 -75 21 -75 26 0 4 -9 8 -20
8 -11 0 -20 4 -20 9 0 9 -220 41 -283 41 -31 0 -39 4 -47 25 -5 14 -15 25 -22
25 -15 0 -58 49 -58 66 0 7 -11 24 -25 38 -14 14 -25 32 -25 40 0 8 -5 16 -11
18 -16 5 -28 81 -29 179 0 110 14 187 40 209 11 10 20 20 20 24 0 8 17 30 48
61 12 12 22 26 22 31 0 11 73 41 123 50 20 3 37 10 37 15 0 5 45 9 100 9 55 0
100 -4 100 -9 0 -4 25 -16 56 -26 42 -13 58 -24 65 -43 5 -14 19 -33 29 -42
11 -10 20 -29 20 -44 0 -14 5 -26 10 -26 6 0 10 -11 10 -25 0 -14 -4 -25 -10
-25 -5 0 -10 -10 -10 -22 0 -13 -13 -33 -30 -47 -17 -13 -30 -29 -30 -37 0
-14 -68 -28 -116 -22 -20 2 -30 9 -32 23 -4 24 -40 54 -64 55 -10 0 -18 5 -18
10 0 6 -18 10 -40 10 -22 0 -40 -3 -40 -8 0 -4 -10 -12 -22 -17 -20 -9 -23
-19 -26 -72 -2 -52 1 -66 18 -83 11 -11 20 -24 20 -30 0 -5 9 -10 20 -10 10 0
23 -6 27 -13 12 -19 60 -37 98 -37 19 0 35 -4 35 -10 0 -5 18 -10 40 -10 22 0
40 4 40 9 0 4 31 11 69 15 47 5 76 13 92 27 12 10 28 19 35 19 18 0 74 59 74
76 0 8 6 14 13 14 16 0 37 41 37 70 0 11 5 20 10 20 6 0 10 38 10 95 0 57 -4
95 -10 95 -5 0 -10 10 -10 21 0 30 -21 99 -31 99 -13 0 -69 54 -69 67 0 7 -7
13 -15 13 -9 0 -25 9 -37 20 -12 11 -28 20 -35 20 -7 0 -13 6 -13 13 0 8 -22
19 -50 27 -27 7 -50 17 -50 22 0 4 -13 8 -30 8 -16 0 -30 5 -30 10 0 6 -43 10
-110 10 -67 0 -110 -4 -110 -10z m-32 -1559 c2 -6 12 -11 23 -11 10 0 19 -4
19 -10 0 -5 7 -10 15 -10 8 0 42 -7 75 -17 45 -12 60 -21 60 -34 0 -13 13 -22
41 -31 23 -6 46 -20 53 -30 6 -10 17 -18 24 -18 7 0 19 -6 26 -12 29 -28 65
-57 85 -67 11 -7 23 -22 27 -35 3 -14 18 -29 35 -36 18 -8 32 -22 36 -39 3
-14 14 -34 24 -44 11 -10 19 -27 19 -37 0 -11 6 -20 14 -20 10 0 19 -20 26
-57 7 -32 17 -61 24 -65 16 -10 15 -336 -1 -346 -6 -4 -17 -35 -24 -70 -8 -35
-18 -62 -25 -62 -7 0 -15 -9 -19 -19 -3 -11 -12 -22 -20 -25 -8 -3 -15 -14
-15 -25 0 -20 -12 -35 -49 -61 -11 -8 -21 -20 -21 -26 0 -6 -14 -22 -31 -35
-18 -13 -42 -34 -54 -47 -12 -12 -28 -22 -34 -22 -7 0 -21 -9 -33 -20 -12 -11
-36 -23 -54 -26 -20 -4 -36 -14 -39 -25 -5 -14 -30 -23 -106 -41 -55 -12 -99
-27 -99 -34 0 -15 -79 -24 -211 -24 -142 0 -229 10 -229 25 0 7 -20 16 -47 20
-55 8 -146 36 -151 48 -2 4 -10 7 -17 7 -7 0 -15 7 -19 15 -3 8 -12 15 -21 15
-26 0 -55 20 -145 102 -17 16 -35 28 -40 28 -6 0 -10 5 -10 10 0 11 -10 24
-42 61 -10 10 -18 24 -18 29 0 6 -11 22 -25 36 -14 14 -25 36 -25 49 0 13 -6
30 -14 38 -8 7 -17 39 -21 70 -5 39 -12 57 -21 57 -11 0 -14 24 -14 115 0 90
3 115 14 115 9 0 15 18 19 52 4 28 10 54 15 57 4 3 14 31 21 61 9 34 24 64 41
80 15 14 30 36 34 48 8 24 27 44 96 102 23 19 59 52 80 73 21 20 42 37 48 37
5 0 23 7 38 15 16 8 37 15 47 15 10 0 17 8 17 18 0 14 14 23 51 35 28 10 58
17 65 17 8 0 14 5 14 10 0 6 14 10 30 10 17 0 30 4 30 9 0 15 69 19 245 16
107 -2 160 -6 163 -14z m-904 -1693 c19 -13 35 -28 36 -34 0 -6 23 -21 50 -34
28 -13 50 -29 50 -35 0 -12 17 -21 93 -46 20 -7 37 -16 37 -20 0 -4 16 -10 35
-13 19 -4 35 -10 35 -15 0 -4 30 -13 68 -21 37 -7 70 -18 74 -24 11 -17 430
-15 436 2 2 6 14 12 27 12 35 0 125 22 125 31 0 4 18 10 40 14 22 4 40 10 40
13 0 6 52 29 103 46 9 3 17 11 17 18 0 7 19 21 41 30 23 10 43 26 46 37 6 23
69 51 114 51 16 0 41 -7 54 -16 36 -23 36 -99 0 -133 -14 -13 -25 -27 -25 -32
0 -5 -7 -9 -15 -9 -9 0 -18 -7 -21 -15 -4 -8 -12 -15 -18 -15 -7 0 -22 -9 -34
-20 -12 -11 -28 -20 -36 -20 -8 0 -21 -8 -28 -19 -7 -10 -28 -22 -46 -25 -17
-4 -32 -11 -32 -15 0 -4 -36 -18 -80 -32 -44 -13 -80 -30 -80 -36 0 -7 -10
-13 -23 -13 -12 0 -54 -7 -92 -15 -98 -21 -358 -30 -475 -16 -148 18 -210 32
-210 47 0 8 -8 14 -17 14 -32 0 -142 38 -158 54 -9 9 -25 16 -36 16 -10 0 -19
5 -19 11 0 5 -13 15 -30 20 -16 6 -30 14 -30 18 0 4 -11 13 -25 19 -27 13 -28
13 -89 67 -21 19 -44 35 -51 35 -14 0 -29 77 -20 101 16 41 115 51 169 17z"/>
<path d="M2400 3147 c0 -8 -30 -20 -76 -32 -60 -15 -78 -24 -84 -41 -5 -13
-21 -25 -38 -29 -17 -3 -34 -16 -40 -30 -7 -14 -15 -25 -20 -25 -5 0 -14 -16
-22 -35 -8 -19 -19 -35 -26 -35 -7 0 -15 -18 -19 -40 -4 -22 -11 -40 -16 -40
-5 0 -9 -40 -9 -90 0 -49 4 -90 9 -90 5 0 12 -18 16 -40 4 -23 12 -40 20 -40
7 0 19 -15 26 -32 14 -34 46 -67 65 -68 7 0 14 -8 16 -17 5 -18 22 -29 86 -55
17 -7 32 -18 32 -24 0 -15 120 -34 211 -34 84 0 189 19 189 35 0 5 15 16 33
23 64 27 79 37 88 59 5 13 14 23 22 23 17 0 46 36 59 71 5 16 16 29 23 29 14
0 25 43 25 96 0 19 5 34 10 34 6 0 10 9 10 20 0 11 -4 20 -10 20 -5 0 -10 13
-10 29 0 49 -12 91 -26 91 -8 0 -14 6 -14 13 0 18 -24 67 -32 67 -5 0 -8 7 -8
15 0 9 -7 18 -15 21 -21 8 -85 68 -85 80 0 10 -46 28 -117 46 -24 6 -43 17
-43 25 0 10 -26 13 -115 13 -88 0 -115 -3 -115 -13z m344 -150 c12 -13 29 -26
39 -30 11 -4 17 -17 17 -39 0 -59 -9 -75 -49 -87 -78 -23 -145 -6 -156 39 -4
14 -12 28 -18 32 -9 6 -9 10 -1 16 6 4 14 19 18 35 3 15 13 27 22 27 8 0 17 7
20 15 10 25 83 20 108 -8z"/>
</g>
</svg>
