<?xml version="1.0" standalone="no"?>
<!DOCTYPE svg PUBLIC "-//W3C//DTD SVG 20010904//EN"
 "http://www.w3.org/TR/2001/REC-SVG-20010904/DTD/svg10.dtd">
<svg version="1.0" xmlns="http://www.w3.org/2000/svg"
 width="800px" height="800px" viewBox="0 0 493.000000 516.000000"
 preserveAspectRatio="xMidYMid meet">

<g transform="translate(0.000000,516.000000) scale(0.100000,-0.100000)"
fill="#d81159" stroke="none">
<path d="M2608 5138 c-32 -6 -58 -14 -58 -19 0 -5 -9 -9 -20 -9 -11 0 -20 -4
-20 -10 0 -5 -8 -10 -18 -10 -27 0 -84 -30 -107 -57 -11 -13 -28 -23 -37 -23
-19 0 -35 -18 -39 -45 -2 -11 -14 -24 -26 -29 -12 -6 -26 -26 -32 -48 -7 -21
-16 -38 -20 -38 -5 0 -12 -15 -15 -34 -4 -19 -11 -36 -16 -38 -5 -2 -13 -31
-16 -65 -4 -35 -11 -63 -15 -63 -5 0 -9 -31 -9 -70 0 -38 4 -70 9 -70 4 0 11
-27 15 -60 4 -33 11 -60 15 -60 5 0 12 -16 15 -35 4 -19 11 -35 16 -35 6 0 10
-6 10 -13 0 -22 24 -67 37 -67 9 0 53 -75 53 -92 0 -3 -38 -9 -85 -13 -47 -4
-85 -10 -85 -14 0 -4 -34 -12 -76 -18 -42 -6 -79 -15 -83 -20 -3 -6 -24 -13
-45 -16 -22 -4 -42 -10 -45 -15 -3 -5 -27 -14 -53 -22 -27 -7 -48 -16 -48 -21
0 -5 -18 -12 -40 -15 -22 -4 -40 -10 -40 -14 0 -4 -15 -13 -32 -21 -18 -7 -43
-23 -55 -36 -12 -13 -31 -23 -42 -23 -11 0 -26 -7 -35 -15 -8 -8 -18 -15 -23
-15 -10 0 -44 -24 -74 -52 -11 -10 -22 -18 -25 -18 -4 0 -21 -16 -40 -35 -18
-19 -37 -35 -42 -35 -5 0 -17 -11 -26 -25 -9 -14 -23 -25 -31 -25 -8 0 -15 -6
-15 -14 0 -20 -82 -116 -99 -116 -4 0 -13 -16 -21 -35 -8 -19 -17 -35 -22 -35
-4 0 -8 -6 -8 -14 0 -8 -6 -16 -13 -19 -7 -3 -19 -23 -26 -46 -6 -23 -18 -41
-24 -41 -8 0 -21 -30 -31 -70 -12 -44 -24 -70 -32 -70 -8 0 -14 -10 -14 -24 0
-13 -4 -26 -10 -28 -5 -1 -15 -33 -22 -70 -7 -38 -16 -68 -19 -68 -4 0 -10
-30 -14 -67 -4 -38 -12 -71 -19 -75 -16 -10 -16 -736 0 -746 7 -4 15 -37 19
-74 4 -38 11 -68 15 -68 5 0 14 -34 21 -75 6 -41 16 -75 20 -75 5 0 9 -7 9
-15 0 -8 7 -15 15 -15 8 0 15 -9 15 -20 0 -10 4 -29 9 -42 5 -13 12 -35 15
-50 4 -16 13 -28 21 -28 8 0 15 -8 15 -17 0 -10 7 -27 15 -37 8 -11 15 -27 15
-36 0 -8 11 -24 25 -34 14 -10 25 -27 25 -38 0 -10 7 -21 15 -24 8 -4 15 -11
15 -16 0 -11 50 -58 61 -58 4 0 10 -11 13 -25 4 -15 17 -30 32 -35 13 -5 27
-17 30 -25 4 -8 22 -23 41 -32 19 -9 40 -26 45 -39 6 -12 20 -25 32 -28 12 -3
31 -14 43 -26 12 -11 25 -20 28 -20 3 0 15 -9 26 -19 12 -11 36 -22 54 -25 21
-4 36 -14 40 -26 4 -11 12 -20 18 -20 7 0 31 -8 54 -17 41 -17 43 -20 43 -60
0 -32 -4 -43 -15 -43 -8 0 -15 -7 -15 -15 0 -17 -39 -35 -76 -35 -13 0 -24 -4
-24 -10 0 -5 -11 -10 -25 -10 -14 0 -25 -4 -25 -9 0 -5 -17 -12 -37 -16 -57
-10 -113 -29 -113 -37 0 -5 -9 -8 -20 -8 -11 0 -20 -4 -20 -8 0 -4 -27 -16
-60 -25 -33 -10 -60 -22 -60 -28 0 -5 -7 -9 -15 -9 -8 0 -15 -4 -15 -10 0 -5
-18 -14 -40 -20 -21 -6 -46 -17 -54 -25 -8 -8 -18 -15 -23 -15 -4 0 -14 -9
-21 -20 -7 -11 -21 -20 -32 -20 -12 0 -25 -10 -32 -25 -6 -14 -17 -25 -25 -25
-14 0 -92 -71 -154 -139 -10 -12 -19 -25 -19 -31 0 -5 -7 -10 -16 -10 -9 0
-23 -17 -32 -40 -9 -22 -22 -40 -28 -40 -14 0 -24 -47 -24 -114 0 -60 8 -96
22 -96 6 0 19 -11 30 -25 l19 -25 1660 0 c1811 0 1710 -3 1725 55 4 16 13 25
25 25 17 0 19 8 19 70 0 62 -2 70 -19 70 -14 0 -21 10 -25 35 -4 19 -17 45
-29 57 -12 13 -29 37 -37 53 -17 35 -68 85 -86 85 -7 0 -16 9 -19 21 -4 11
-22 27 -41 36 -18 9 -36 24 -39 32 -3 9 -23 25 -45 35 -22 11 -40 23 -40 28 0
4 -9 8 -20 8 -11 0 -20 3 -20 8 0 8 -73 42 -90 42 -6 0 -10 5 -10 10 0 6 -9
10 -20 10 -11 0 -20 4 -20 8 0 10 -92 42 -119 42 -9 0 -23 9 -31 20 -8 11 -21
20 -30 20 -27 0 -150 34 -150 42 0 4 -11 8 -25 8 -14 0 -25 4 -25 9 0 5 -15
12 -34 15 -38 7 -46 20 -46 74 0 48 6 55 65 77 28 10 57 26 65 34 8 9 34 25
58 35 23 11 42 23 42 28 0 4 9 8 20 8 11 0 20 4 20 8 0 5 18 17 40 28 22 10
42 26 45 36 3 9 18 21 33 26 15 5 39 21 52 35 14 15 30 27 36 27 12 0 54 46
54 60 0 5 9 14 20 20 11 6 20 18 20 28 0 9 9 23 20 30 11 7 20 21 20 31 0 12
9 21 24 25 14 3 27 16 31 29 11 37 28 67 39 67 11 0 33 52 43 102 3 16 9 28
14 28 5 0 9 11 9 24 0 13 5 26 10 28 6 2 16 34 23 71 6 38 16 67 23 67 12 0
24 44 24 85 0 13 4 25 10 27 6 2 13 74 17 171 3 92 10 167 15 167 4 0 8 27 8
60 0 33 -4 60 -8 60 -5 0 -12 71 -15 157 -4 95 -10 159 -17 161 -5 2 -10 18
-10 35 0 56 -12 107 -25 107 -8 0 -17 29 -25 80 -7 44 -16 80 -21 80 -5 0 -9
7 -9 15 0 8 -4 15 -10 15 -5 0 -10 9 -10 20 0 10 -4 29 -9 42 -5 13 -12 35
-15 51 -4 15 -12 27 -19 27 -6 0 -20 26 -31 57 -18 56 -36 83 -54 83 -6 0 -15
14 -21 30 -5 17 -15 30 -20 30 -6 0 -11 7 -11 15 0 9 -7 18 -15 21 -8 4 -15
11 -15 18 0 6 -12 22 -25 35 -14 13 -25 29 -25 37 0 8 -5 14 -11 14 -6 0 -25
16 -43 35 -19 19 -37 35 -42 35 -5 0 -18 14 -29 30 -11 16 -25 30 -31 30 -7 0
-19 11 -28 25 -9 14 -26 25 -37 25 -11 0 -30 11 -43 25 -13 14 -30 25 -39 25
-9 0 -30 13 -46 29 -16 16 -44 32 -61 36 -17 4 -34 13 -36 20 -3 7 -21 16 -40
19 -19 4 -34 10 -34 15 0 4 -18 13 -40 20 -22 6 -40 16 -40 20 0 5 -19 11 -41
14 -23 3 -45 10 -48 15 -3 6 -42 16 -86 23 -44 7 -83 17 -86 21 -3 4 -40 11
-82 14 -42 4 -77 11 -77 15 0 5 -13 9 -30 9 -19 0 -34 7 -42 20 -7 11 -19 20
-25 20 -7 0 -23 11 -35 25 -12 14 -27 25 -35 25 -7 0 -15 11 -19 24 -3 13 -16
28 -29 34 -14 6 -26 23 -30 41 -4 17 -11 31 -16 31 -5 0 -9 7 -9 15 0 8 -4 15
-8 15 -14 0 -32 97 -32 169 0 76 18 181 31 181 5 0 9 7 9 15 0 8 5 15 11 15 5
0 14 13 20 28 5 16 25 36 47 47 20 11 44 28 53 37 9 10 23 18 32 18 9 0 18 4
21 9 3 5 26 12 51 15 25 4 45 11 45 17 0 5 18 9 40 9 22 0 40 -4 40 -10 0 -5
9 -10 19 -10 11 0 43 -5 71 -12 38 -9 55 -18 63 -35 5 -13 16 -23 22 -23 19 0
45 -34 45 -58 0 -12 5 -22 10 -22 6 0 10 -28 10 -65 0 -36 -3 -65 -8 -65 -4 0
-16 -15 -26 -34 -12 -23 -30 -37 -56 -46 -43 -14 -110 -6 -110 13 -1 24 -50
59 -90 64 -69 10 -119 -27 -120 -86 0 -38 20 -101 32 -101 4 0 21 -13 36 -30
16 -16 36 -30 45 -30 9 0 23 -8 33 -17 14 -15 36 -18 121 -18 68 0 106 4 111
12 4 6 19 14 34 18 15 4 29 13 32 21 3 8 16 14 28 14 14 0 33 13 48 31 14 17
33 40 43 51 9 12 17 27 17 34 0 7 5 14 11 16 27 9 38 188 17 280 -7 30 -22 62
-35 74 -13 12 -23 27 -23 34 0 13 -57 70 -71 70 -5 0 -9 4 -9 8 0 5 -19 17
-42 28 -24 10 -50 26 -59 36 -31 34 -238 48 -371 26z m70 -1565 c4 -5 27 -13
51 -16 24 -3 47 -10 50 -15 3 -5 32 -17 64 -26 31 -9 57 -21 57 -26 0 -6 7
-10 15 -10 8 0 15 -4 15 -10 0 -5 8 -10 19 -10 10 0 24 -7 31 -15 7 -8 16 -15
21 -15 5 0 25 -16 43 -35 19 -19 41 -35 50 -35 9 0 16 -4 16 -9 0 -6 10 -21
23 -35 12 -13 29 -34 37 -46 8 -13 20 -28 25 -34 6 -6 17 -26 24 -43 7 -18 20
-33 27 -33 8 0 14 -10 14 -24 0 -14 6 -31 13 -38 44 -44 50 -492 7 -506 -6 -2
-10 -12 -10 -22 0 -28 -11 -50 -24 -50 -6 0 -18 -21 -26 -47 -8 -27 -26 -59
-42 -73 -15 -13 -28 -31 -28 -38 0 -16 -39 -51 -57 -52 -7 0 -13 -6 -13 -13 0
-7 -18 -24 -40 -37 -22 -14 -40 -30 -40 -36 0 -6 -12 -16 -27 -23 -16 -8 -36
-17 -45 -22 -10 -5 -25 -9 -33 -9 -8 0 -15 -6 -15 -14 0 -14 -126 -56 -167
-56 -13 0 -23 -6 -23 -14 0 -17 -71 -26 -221 -26 -133 0 -179 7 -179 26 0 8
-11 14 -27 14 -43 0 -183 41 -183 54 0 12 -88 56 -114 56 -9 0 -16 7 -16 15 0
8 -16 25 -35 37 -19 13 -35 28 -35 33 0 6 -13 21 -30 35 -16 14 -30 30 -30 35
0 6 -13 22 -30 35 -16 14 -29 33 -30 43 0 9 -7 17 -15 17 -8 0 -17 12 -21 28
-3 15 -9 37 -14 49 -5 12 -12 45 -16 73 -4 29 -12 50 -19 50 -17 0 -28 141
-20 246 5 57 11 84 20 84 7 0 15 18 19 40 9 59 39 150 49 150 11 0 37 26 37
37 0 11 24 42 68 90 17 20 32 39 32 42 0 4 13 15 29 24 17 10 33 26 36 37 3
10 19 21 35 25 17 4 32 11 35 16 4 5 15 9 25 9 10 0 21 9 25 20 4 13 24 24 66
36 32 9 59 20 59 24 0 5 23 11 50 15 28 4 50 11 50 15 0 13 71 18 233 15 86
-1 152 -6 155 -12z m27 -1808 c55 -8 103 -15 108 -15 4 0 7 -6 7 -14 0 -9 27
-20 76 -32 57 -13 78 -22 82 -36 2 -11 17 -21 33 -25 16 -3 34 -12 40 -19 6
-8 22 -14 35 -14 15 0 24 -6 24 -15 0 -8 11 -22 25 -31 14 -9 25 -25 25 -35 0
-11 5 -19 10 -19 6 0 10 -11 10 -25 0 -14 -4 -25 -10 -25 -5 0 -10 -7 -10 -15
0 -44 -124 -42 -169 3 -27 28 -91 62 -116 62 -8 0 -15 7 -15 15 0 8 -12 17
-27 21 -16 3 -40 10 -56 14 -15 5 -54 12 -87 16 -41 4 -60 11 -60 20 0 11 -27
14 -130 14 -109 0 -130 -2 -130 -15 0 -10 -10 -15 -31 -15 -55 0 -209 -41
-209 -56 0 -8 -8 -14 -18 -14 -10 0 -27 -7 -38 -15 -10 -8 -27 -15 -36 -15 -9
0 -19 -8 -22 -18 -6 -19 -88 -52 -129 -52 -14 0 -37 4 -51 10 -24 9 -26 15
-26 64 0 51 2 56 35 76 19 12 35 27 35 34 0 7 29 23 65 37 36 13 65 29 65 36
0 6 34 22 75 34 44 13 75 28 75 36 0 7 8 13 18 14 9 0 49 7 87 14 94 18 317
18 440 0z"/>
<path d="M2388 3224 c-10 -3 -18 -10 -18 -15 0 -5 -12 -9 -26 -9 -14 0 -32 -7
-40 -15 -9 -8 -23 -15 -33 -15 -9 0 -27 -9 -39 -20 -12 -11 -26 -20 -32 -20
-5 0 -10 -4 -10 -10 0 -5 -13 -16 -30 -25 -16 -9 -30 -23 -30 -32 0 -8 -10
-24 -22 -35 -26 -22 -48 -86 -48 -140 0 -27 -4 -38 -15 -38 -10 0 -15 -11 -15
-35 0 -24 5 -35 15 -35 11 0 15 -11 15 -36 0 -58 28 -142 51 -149 10 -4 19
-15 19 -25 0 -11 13 -26 30 -35 17 -9 30 -21 30 -28 0 -14 73 -57 96 -57 8 0
14 -7 14 -15 0 -21 58 -30 200 -30 136 0 180 7 180 30 0 8 12 17 28 21 42 9
75 27 79 45 3 8 17 23 33 32 16 10 32 27 36 40 4 12 15 29 25 38 11 9 19 22
19 28 0 7 6 19 14 27 32 31 32 257 0 288 -8 8 -14 24 -14 35 0 11 -9 22 -19
26 -10 3 -24 19 -31 35 -7 17 -16 30 -21 30 -4 0 -26 18 -48 40 -22 22 -48 40
-58 40 -11 0 -29 9 -41 20 -12 11 -30 20 -41 20 -11 0 -21 5 -23 12 -5 13
-194 22 -230 12z m306 -149 c8 -8 21 -15 29 -15 29 0 44 -63 31 -129 -5 -24
-12 -31 -30 -31 -12 0 -26 -4 -29 -10 -3 -5 -21 -10 -38 -10 -47 0 -97 57 -97
110 0 22 5 40 10 40 6 0 10 7 10 15 0 8 5 15 11 15 6 0 17 7 25 15 9 8 26 15
39 15 13 0 30 -7 39 -15z"/>
</g>
</svg>
