<?xml version="1.0" standalone="no"?>
<!DOCTYPE svg PUBLIC "-//W3C//DTD SVG 20010904//EN"
 "http://www.w3.org/TR/2001/REC-SVG-20010904/DTD/svg10.dtd">
<svg version="1.0" xmlns="http://www.w3.org/2000/svg"
 width="800px" height="800px" viewBox="0 0 493.000000 516.000000"
 preserveAspectRatio="xMidYMid meet">

<g transform="translate(0.000000,516.000000) scale(0.100000,-0.100000)"
fill="#000000" stroke="none">
<path d="M2660 5081 c0 -4 -23 -11 -51 -14 -48 -6 -118 -26 -129 -37 -12 -12
-51 -30 -65 -30 -17 0 -49 -29 -58 -53 -4 -10 -18 -22 -32 -27 -14 -5 -25 -15
-25 -23 0 -7 -13 -24 -30 -37 -16 -14 -29 -31 -30 -37 0 -7 -4 -13 -8 -13 -5
0 -14 -18 -21 -40 -6 -22 -17 -40 -24 -40 -14 0 -37 -87 -37 -138 0 -18 -4
-32 -10 -32 -6 0 -10 -37 -10 -90 0 -53 4 -90 10 -90 6 0 10 -14 10 -30 0 -53
24 -160 36 -160 6 0 14 -13 17 -29 3 -16 13 -36 22 -44 8 -9 15 -20 15 -26 0
-6 6 -11 13 -11 6 -1 0 -8 -15 -16 -16 -8 -28 -22 -28 -30 0 -9 -9 -18 -20
-21 -14 -4 -24 -19 -32 -49 -7 -24 -16 -44 -20 -44 -11 0 -10 -138 1 -142 5
-1 12 -25 16 -52 l8 -49 -39 7 c-22 4 -43 12 -49 17 -10 10 -14 213 -5 308 l5
55 -47 14 c-27 7 -48 17 -48 23 0 5 -9 9 -20 9 -11 0 -20 4 -20 9 0 5 -25 15
-55 22 -30 7 -55 15 -55 19 0 4 -29 15 -65 25 -37 11 -65 25 -65 32 0 7 -7 13
-15 13 -8 0 -15 3 -15 8 0 4 -31 18 -70 31 -38 13 -70 30 -70 37 0 11 -89 44
-118 44 -6 0 -12 5 -14 11 -4 13 -109 39 -160 39 -21 0 -38 5 -38 10 0 6 -9
10 -20 10 -11 0 -20 -4 -20 -8 0 -5 -19 -12 -42 -18 -30 -6 -46 -16 -53 -31
-5 -13 -15 -23 -22 -23 -7 0 -15 -11 -19 -25 -9 -36 -10 -775 -1 -807 4 -16
14 -28 21 -28 8 0 20 -14 28 -30 7 -17 25 -36 41 -43 29 -13 36 -27 12 -27 -8
0 -17 -11 -21 -25 -3 -14 -9 -25 -13 -25 -3 0 -12 -13 -19 -30 -8 -16 -20 -30
-27 -30 -7 0 -19 -16 -25 -35 -6 -19 -15 -35 -20 -35 -5 0 -11 -13 -15 -30 -4
-17 -11 -30 -16 -30 -5 0 -9 -9 -9 -21 0 -11 -6 -27 -14 -34 -7 -8 -16 -32
-20 -54 -4 -25 -12 -41 -20 -41 -9 0 -18 -25 -27 -80 -7 -44 -16 -80 -20 -80
-4 0 -11 -36 -15 -80 -4 -52 -11 -80 -19 -80 -11 0 -35 -205 -35 -302 0 -21
-4 -38 -10 -38 -5 0 -10 -22 -10 -50 0 -27 -4 -50 -10 -50 -5 0 -10 -18 -10
-40 0 -22 -4 -40 -10 -40 -5 0 -10 -13 -10 -30 0 -16 -4 -30 -9 -30 -5 0 -14
-26 -21 -58 -11 -50 -18 -61 -42 -70 -15 -5 -28 -17 -28 -26 0 -9 -7 -16 -15
-16 -8 0 -15 -3 -15 -8 0 -15 -62 -34 -110 -34 -67 0 -149 22 -155 42 -5 15
-64 40 -94 40 -7 0 -11 -26 -11 -75 0 -43 4 -75 10 -75 6 0 10 -11 10 -25 0
-14 5 -25 10 -25 6 0 10 -11 10 -24 0 -14 7 -31 15 -40 8 -8 15 -19 15 -24 0
-6 7 -12 15 -16 8 -3 15 -13 15 -22 0 -10 18 -34 40 -55 22 -21 40 -45 40 -54
0 -8 8 -15 19 -15 10 0 24 -6 30 -14 7 -8 23 -17 36 -20 14 -4 25 -11 25 -16
0 -5 17 -12 38 -16 20 -4 40 -12 44 -18 10 -15 316 -15 326 0 4 6 24 14 45 18
34 6 38 5 47 -19 5 -14 15 -25 22 -25 13 0 38 -44 38 -66 0 -6 15 -19 33 -27
21 -10 38 -29 47 -51 7 -20 19 -36 26 -36 7 0 25 -13 41 -30 15 -16 34 -30 41
-30 7 0 17 -11 22 -24 6 -18 20 -27 46 -32 26 -5 41 -15 53 -35 9 -16 21 -29
28 -29 17 0 85 -32 101 -47 7 -7 24 -16 38 -19 13 -3 24 -10 24 -15 0 -5 7 -9
15 -9 8 0 15 -4 15 -8 0 -5 19 -12 43 -18 36 -8 42 -13 45 -38 5 -41 -6 -76
-23 -76 -8 0 -15 -4 -15 -8 0 -5 -31 -14 -70 -21 -38 -7 -70 -17 -70 -22 0 -5
-9 -9 -20 -9 -11 0 -20 -4 -20 -9 0 -4 -21 -13 -47 -19 -109 -25 -143 -36
-143 -48 0 -7 -18 -15 -40 -19 -22 -4 -42 -11 -46 -16 -3 -5 -14 -9 -24 -9
-10 0 -25 -7 -34 -15 -8 -8 -21 -15 -29 -15 -8 0 -24 -9 -37 -20 -13 -11 -29
-20 -35 -20 -7 0 -15 -7 -19 -15 -3 -8 -11 -15 -17 -15 -14 0 -69 -55 -69 -69
0 -5 -12 -13 -27 -19 -35 -12 -73 -48 -73 -67 0 -8 -5 -15 -11 -15 -7 0 -22
-10 -33 -22 -12 -13 -32 -30 -44 -38 -12 -8 -22 -22 -22 -31 0 -9 -6 -19 -14
-22 -7 -3 -16 -22 -20 -41 -4 -22 -13 -36 -21 -36 -12 0 -15 -15 -15 -70 0
-56 3 -70 15 -70 8 0 15 -7 15 -15 0 -13 207 -15 1800 -15 1793 0 1800 0 1800
20 0 11 7 20 15 20 11 0 15 12 15 50 0 36 -4 50 -14 50 -9 0 -17 15 -21 39 -4
22 -15 50 -26 62 -10 12 -19 30 -19 39 0 10 -13 23 -30 30 -16 7 -30 17 -30
23 0 14 -80 87 -108 98 -13 5 -28 22 -33 39 -7 19 -18 30 -30 30 -19 0 -30 6
-68 41 -10 9 -30 19 -45 23 -14 3 -26 11 -26 16 0 6 -9 10 -20 10 -10 0 -23 6
-27 14 -9 15 -120 56 -153 56 -11 0 -20 7 -20 15 0 15 -34 27 -140 46 -39 8
-70 17 -70 21 0 4 -9 8 -20 8 -11 0 -20 4 -20 9 0 5 -19 12 -43 15 -54 8 -77
34 -77 86 l0 39 60 18 c33 9 60 21 60 25 0 4 5 8 11 8 6 0 17 7 25 15 9 8 26
15 40 15 14 0 27 6 30 14 3 7 23 19 46 27 22 7 42 19 45 26 3 7 13 13 23 13
10 0 20 7 23 15 4 8 21 18 39 23 19 5 38 18 45 32 6 13 24 30 39 38 32 17 63
51 64 70 0 6 6 12 13 12 6 0 23 12 36 25 13 14 29 25 35 25 7 0 20 18 30 40
10 22 22 40 27 40 5 0 9 7 9 15 0 8 11 17 24 21 15 3 27 15 30 30 5 17 13 24
30 24 14 0 26 -5 28 -11 2 -6 36 -14 76 -17 40 -2 72 -9 72 -13 0 -5 7 -9 15
-9 8 0 15 4 15 9 0 4 29 11 65 14 39 4 72 13 81 22 9 8 21 15 27 15 30 0 97
36 97 52 0 10 14 24 30 33 17 9 30 19 30 24 0 5 8 11 19 14 12 3 21 17 25 42
5 24 14 39 26 42 11 3 22 18 26 37 3 17 11 34 16 37 5 3 12 42 14 85 3 43 2
74 -3 68 -13 -17 -174 -37 -262 -32 -85 5 -102 13 -130 66 -6 12 -17 22 -24
22 -7 0 -18 26 -26 58 -7 31 -17 59 -22 62 -4 3 -11 43 -15 88 -4 45 -11 82
-15 82 -5 0 -9 38 -9 85 0 50 -4 85 -10 85 -6 0 -10 28 -10 65 0 36 -4 65 -9
65 -6 0 -13 32 -17 70 -3 39 -11 70 -15 70 -5 0 -9 14 -9 30 0 17 -4 30 -9 30
-5 0 -12 29 -16 65 -3 36 -10 65 -15 65 -4 0 -11 16 -14 35 -4 19 -12 35 -19
35 -7 0 -20 35 -32 85 -10 47 -23 85 -28 85 -12 0 -37 27 -37 40 0 6 -9 20
-20 32 -10 11 -22 34 -25 49 -4 16 -13 29 -22 29 -8 0 -17 9 -20 20 -3 11 -9
20 -14 20 -5 0 -9 9 -9 20 0 11 4 20 9 20 5 0 12 11 15 25 4 14 13 25 20 25
22 0 25 42 32 410 8 403 6 416 -57 443 -78 34 -133 33 -296 -4 -29 -6 -53 -16
-53 -20 0 -5 -9 -9 -20 -9 -11 0 -20 -6 -20 -13 0 -9 -32 -20 -95 -32 -52 -11
-95 -22 -95 -26 0 -5 -27 -13 -60 -20 -33 -6 -60 -16 -60 -20 0 -5 -9 -9 -19
-9 -11 0 -21 -4 -23 -10 -3 -10 -82 -33 -155 -45 -27 -4 -43 -12 -43 -21 0 -8
-11 -14 -27 -15 -16 0 -22 -3 -15 -6 14 -6 18 -223 3 -223 -4 0 -11 -19 -14
-42 -7 -51 -27 -68 -84 -68 -36 0 -43 3 -43 20 0 11 7 20 15 20 10 0 17 14 21
40 4 22 10 40 15 40 5 0 9 34 9 75 0 41 -4 75 -9 75 -5 0 -11 14 -14 30 -4 17
-13 30 -21 30 -8 0 -21 12 -28 28 -8 16 -27 31 -48 38 -19 6 -36 16 -38 23 -2
6 -14 11 -27 11 -13 0 -25 5 -27 11 -2 7 -36 14 -80 17 l-76 5 -17 53 c-12 39
-22 54 -35 54 -13 0 -21 10 -25 33 -4 17 -13 35 -19 39 -15 10 -15 296 0 306
6 4 14 19 18 35 4 18 13 27 26 27 11 0 20 6 20 13 0 20 30 77 40 77 5 0 23 14
40 30 17 17 34 30 39 30 4 0 23 8 42 18 27 13 60 17 161 17 88 0 131 -4 140
-12 6 -7 21 -13 33 -13 20 0 75 -52 75 -71 0 -5 8 -9 19 -9 23 0 31 -26 31
-105 0 -73 -8 -105 -26 -105 -7 0 -24 -11 -38 -25 -16 -16 -36 -25 -56 -25
-20 0 -30 -5 -30 -15 0 -8 -9 -15 -20 -15 -11 0 -20 6 -20 13 0 6 -20 21 -44
31 -35 16 -46 27 -56 57 -10 29 -20 40 -41 44 -36 8 -69 -2 -69 -21 0 -8 -4
-14 -10 -14 -5 0 -19 -9 -30 -20 -25 -25 -29 -114 -5 -124 8 -3 15 -15 15 -26
0 -11 6 -20 14 -20 8 0 23 -10 33 -22 10 -13 44 -32 75 -42 95 -32 319 -13
365 31 7 6 26 17 43 25 16 7 30 19 30 27 0 7 11 24 25 37 14 13 25 32 25 44 0
11 6 20 14 20 18 0 26 44 26 145 0 101 -8 145 -26 145 -8 0 -14 8 -14 18 0 10
-8 27 -19 38 -10 11 -22 30 -25 42 -4 12 -14 22 -21 22 -8 0 -22 16 -31 35
-11 23 -26 37 -43 41 -14 4 -30 12 -36 19 -11 13 -39 21 -132 37 -35 6 -63 15
-63 20 0 4 -45 8 -100 8 -55 0 -100 -4 -100 -9z m19 -1627 c39 -5 61 -11 61
-19 0 -7 10 -15 23 -18 129 -28 187 -43 187 -49 0 -5 6 -8 14 -8 8 0 16 -7 20
-15 3 -8 17 -15 30 -15 14 0 30 -8 35 -19 6 -10 24 -21 41 -24 19 -4 34 -16
42 -32 6 -14 26 -32 43 -40 17 -9 36 -28 42 -45 6 -17 18 -30 26 -30 9 0 18
-13 22 -31 4 -17 13 -33 20 -35 7 -3 16 -21 19 -40 4 -19 13 -34 19 -34 14 0
47 -110 47 -154 0 -16 6 -26 15 -26 13 0 15 -21 15 -125 0 -99 -3 -125 -14
-125 -9 0 -15 -18 -20 -55 -9 -80 -28 -145 -42 -145 -7 0 -15 -13 -19 -30 -4
-17 -10 -30 -15 -30 -7 0 -11 -12 -25 -62 -2 -5 -3 -12 -4 -18 0 -5 -8 -10
-16 -10 -9 0 -20 -11 -26 -24 -7 -14 -26 -28 -49 -35 -21 -6 -41 -18 -44 -26
-3 -8 -15 -15 -26 -15 -11 0 -20 -4 -20 -10 0 -5 -6 -10 -14 -10 -8 0 -21 -7
-29 -15 -8 -8 -45 -20 -81 -27 -36 -7 -66 -16 -66 -19 0 -4 -22 -10 -50 -14
-27 -4 -50 -11 -50 -16 0 -5 -16 -9 -35 -9 -24 0 -35 -5 -35 -15 0 -13 -25
-15 -165 -15 -140 0 -165 2 -165 15 0 11 -12 15 -45 15 -25 0 -45 4 -45 9 0 5
-22 12 -50 16 -27 4 -50 10 -50 14 0 4 -25 14 -55 21 -30 7 -55 16 -55 21 0 4
-11 10 -25 13 -14 4 -25 11 -25 16 0 6 -9 10 -20 10 -11 0 -23 7 -26 15 -4 8
-15 15 -25 15 -10 0 -24 9 -31 20 -7 11 -16 20 -21 20 -4 0 -18 11 -30 23 -12
13 -35 27 -51 31 -30 7 -56 28 -56 44 0 6 -7 12 -14 15 -8 3 -18 23 -21 44
-11 61 -16 73 -30 73 -8 0 -16 19 -20 53 -4 28 -12 55 -17 58 -13 8 -13 300 0
308 5 3 12 27 16 54 5 29 12 47 20 47 8 0 16 12 19 28 8 47 31 96 57 122 30
30 50 64 50 84 0 8 12 17 26 20 37 10 72 35 79 57 4 10 12 19 18 19 7 0 24 11
39 25 15 14 33 25 41 25 7 0 23 9 35 20 12 11 28 20 37 20 8 0 15 4 15 9 0 12
45 28 118 42 38 7 62 17 62 25 0 8 16 14 43 17 76 7 263 7 326 1z m-905 -1714
c57 -56 63 -60 90 -60 14 0 29 -7 32 -15 4 -8 13 -15 21 -15 8 0 17 -9 20 -20
3 -11 13 -20 23 -20 10 0 20 -6 23 -13 2 -7 28 -19 56 -26 28 -7 51 -17 51
-22 0 -5 9 -9 20 -9 11 0 20 -7 20 -15 0 -10 14 -17 40 -21 22 -4 40 -10 40
-14 0 -8 116 -30 164 -30 20 0 36 -4 36 -10 0 -6 55 -10 145 -10 80 0 145 4
145 8 0 4 52 13 116 20 75 8 121 17 131 27 8 8 30 15 49 15 24 0 34 5 34 15 0
8 7 15 15 15 8 0 15 3 15 8 0 4 27 15 60 26 33 10 60 22 60 27 0 5 7 9 15 9 8
0 15 6 15 14 0 8 10 18 23 22 12 4 28 15 35 25 7 11 18 19 23 19 5 0 20 11 33
25 13 14 28 25 35 25 6 0 11 5 11 10 0 6 20 10 45 10 25 0 45 -4 45 -10 0 -5
6 -10 14 -10 8 0 16 -7 20 -15 3 -8 12 -15 21 -15 11 0 15 -12 15 -50 0 -37
-4 -50 -14 -50 -8 0 -17 -9 -21 -19 -3 -10 -17 -22 -30 -25 -15 -4 -27 -16
-31 -31 -4 -16 -16 -28 -32 -32 -13 -3 -33 -14 -43 -24 -11 -11 -26 -19 -34
-19 -8 0 -15 -4 -15 -10 0 -5 -6 -10 -14 -10 -8 0 -16 -7 -20 -15 -3 -8 -13
-15 -21 -15 -9 0 -23 -6 -31 -14 -7 -8 -32 -17 -54 -21 -22 -4 -40 -11 -40
-16 0 -5 -7 -9 -15 -9 -8 0 -15 -4 -15 -9 0 -5 -16 -12 -35 -15 -19 -4 -35
-10 -35 -14 0 -8 -148 -32 -247 -39 -35 -3 -63 -9 -63 -14 0 -5 -70 -9 -155
-9 -97 0 -155 4 -155 10 0 6 -18 10 -40 10 -55 0 -240 31 -240 40 0 4 -20 11
-45 14 -25 4 -45 11 -45 17 0 5 -7 9 -16 9 -8 0 -22 7 -30 15 -9 8 -24 15 -35
15 -11 0 -22 7 -25 15 -4 8 -14 15 -24 15 -10 0 -25 7 -34 15 -8 8 -24 15 -35
15 -12 0 -21 4 -21 9 0 5 -16 15 -35 22 -19 7 -35 16 -35 20 0 4 -9 10 -19 14
-10 3 -22 16 -25 29 -3 13 -14 26 -23 30 -10 3 -27 11 -38 18 -11 7 -22 14
-24 15 -12 7 -20 101 -11 129 12 36 23 41 89 43 36 1 49 -4 75 -29z"/>
<path d="M2393 3078 c-29 -5 -53 -14 -53 -19 0 -5 -7 -9 -15 -9 -8 0 -15 -4
-15 -9 0 -4 -21 -16 -46 -26 -29 -11 -49 -26 -54 -41 -5 -13 -16 -24 -25 -24
-9 0 -20 -11 -25 -25 -5 -14 -14 -25 -19 -25 -5 0 -12 -13 -16 -30 -4 -16 -13
-30 -20 -30 -18 0 -25 -23 -32 -110 -7 -92 12 -220 33 -220 8 0 14 -9 14 -20
0 -11 6 -23 14 -26 8 -3 16 -14 19 -25 3 -10 16 -23 30 -28 13 -5 27 -21 31
-34 3 -15 18 -29 38 -38 18 -7 37 -19 41 -26 4 -7 19 -13 32 -13 13 0 25 -5
27 -10 4 -13 106 -30 182 -30 70 0 186 19 186 30 0 4 11 11 25 14 14 4 25 11
25 16 0 6 9 10 19 10 20 0 71 40 71 56 0 5 14 18 30 29 16 11 30 26 30 33 0 6
7 12 15 12 8 0 17 11 21 25 3 14 9 25 13 25 11 0 31 118 31 177 0 71 -19 167
-36 176 -8 4 -14 15 -14 22 0 8 -7 15 -15 15 -8 0 -15 6 -15 13 0 6 -14 21
-30 32 -16 11 -30 25 -30 30 0 12 -52 45 -71 45 -7 0 -23 11 -34 24 -12 14
-40 28 -73 35 -62 13 -215 13 -289 -1z m405 -157 c2 -6 10 -18 18 -25 16 -16
19 -76 4 -76 -5 0 -12 -10 -15 -23 -14 -53 -155 -63 -155 -12 0 8 -6 15 -14
15 -8 0 -17 7 -20 16 -13 34 -3 94 16 94 5 0 17 7 26 16 12 13 29 15 76 11 33
-3 62 -10 64 -16z"/>
</g>
</svg>
