<?xml version="1.0" standalone="no"?>
<!DOCTYPE svg PUBLIC "-//W3C//DTD SVG 20010904//EN"
 "http://www.w3.org/TR/2001/REC-SVG-20010904/DTD/svg10.dtd">
<svg version="1.0" xmlns="http://www.w3.org/2000/svg"
 width="800px" height="800px" viewBox="0 0 493.000000 516.000000"
 preserveAspectRatio="xMidYMid meet">

<g transform="translate(0.000000,516.000000) scale(0.100000,-0.100000)"
fill="#F8C128" stroke="none">
<path d="M2613 5023 c-18 -2 -33 -8 -33 -12 0 -8 -23 -15 -97 -28 -18 -3 -33
-9 -33 -13 0 -4 -15 -13 -32 -21 -18 -7 -49 -30 -69 -51 -20 -21 -43 -38 -50
-38 -8 0 -22 -18 -32 -40 -11 -26 -23 -40 -35 -40 -13 0 -23 -15 -36 -55 -9
-30 -23 -55 -29 -55 -23 0 -42 -118 -41 -255 0 -146 18 -265 40 -265 8 0 14
-10 14 -23 0 -13 7 -32 15 -43 8 -10 15 -27 15 -36 0 -9 10 -19 23 -21 l22 -4
-23 -2 c-14 0 -29 -12 -40 -31 -9 -16 -22 -30 -29 -30 -17 0 -43 -94 -43 -155
0 -28 5 -77 11 -109 7 -31 9 -59 6 -62 -12 -12 -80 9 -84 27 -3 11 -9 19 -14
19 -12 0 -11 217 1 222 5 2 10 28 12 58 l3 54 -52 15 c-29 7 -53 19 -53 26 0
7 -28 20 -62 30 -34 9 -68 23 -75 31 -8 8 -23 14 -34 14 -10 0 -19 4 -19 9 0
5 -20 14 -45 20 -25 6 -45 16 -45 21 0 6 -9 10 -20 10 -23 0 -70 20 -88 37 -7
7 -20 13 -28 13 -8 0 -14 4 -14 9 0 5 -22 14 -50 21 -27 7 -50 16 -50 21 0 5
-9 9 -20 9 -11 0 -20 6 -20 14 0 21 -97 46 -187 48 -92 2 -143 -18 -143 -55 0
-12 -9 -29 -20 -37 -18 -13 -20 -26 -20 -127 0 -94 -3 -113 -15 -113 -13 0
-15 -36 -15 -265 0 -229 2 -265 15 -265 8 0 15 -9 15 -20 0 -11 5 -20 10 -20
6 0 10 -7 10 -15 0 -8 4 -15 8 -15 4 0 25 -16 45 -35 35 -33 47 -55 29 -55
-10 0 -32 -45 -32 -66 0 -16 -46 -64 -61 -64 -5 0 -9 -9 -9 -20 0 -11 -6 -20
-14 -20 -8 0 -20 -16 -26 -35 -6 -19 -16 -35 -21 -35 -5 0 -9 -9 -9 -21 0 -11
-6 -27 -14 -34 -7 -8 -16 -32 -20 -54 -4 -24 -12 -41 -19 -41 -14 0 -40 -124
-53 -252 -6 -57 -10 -68 -25 -68 -16 0 -19 -8 -19 -54 0 -30 -4 -56 -9 -58 -5
-1 -15 -78 -22 -170 -6 -93 -16 -168 -20 -168 -5 0 -9 -18 -9 -40 0 -22 -4
-40 -8 -40 -5 0 -14 -28 -20 -62 -6 -35 -16 -64 -22 -66 -5 -2 -10 -12 -10
-22 0 -11 -9 -24 -20 -30 -11 -6 -20 -17 -20 -25 0 -8 -7 -15 -15 -15 -8 0
-15 -3 -15 -8 0 -29 -164 -47 -209 -23 -11 6 -29 11 -40 11 -11 0 -22 9 -26
19 -6 20 -14 24 -73 36 l-32 7 0 -76 c0 -42 4 -76 9 -76 5 0 11 -23 15 -50 9
-68 15 -80 37 -80 10 0 19 -7 19 -15 0 -24 43 -85 60 -85 8 0 21 -14 28 -30 8
-17 21 -30 32 -30 9 0 23 -7 30 -15 7 -8 17 -15 23 -15 5 0 18 -10 28 -22 35
-39 238 -59 378 -37 98 16 117 15 137 -6 9 -8 20 -15 25 -15 5 0 9 -9 9 -20 0
-10 6 -23 13 -27 6 -4 18 -20 26 -35 8 -15 22 -30 33 -34 10 -3 18 -14 18 -24
0 -11 12 -27 27 -37 16 -9 39 -30 52 -45 13 -15 32 -28 42 -28 10 0 25 -13 34
-30 9 -18 23 -30 35 -30 11 0 27 -11 36 -25 9 -14 25 -25 35 -25 11 0 19 -4
19 -9 0 -5 16 -15 35 -21 19 -6 35 -15 35 -19 0 -4 25 -16 55 -26 30 -11 55
-25 55 -32 0 -7 11 -13 26 -13 43 0 64 -17 64 -54 0 -48 -26 -72 -88 -81 -28
-4 -52 -11 -52 -16 0 -5 -11 -9 -25 -9 -14 0 -25 -4 -25 -10 0 -5 -7 -10 -15
-10 -8 0 -15 -4 -15 -9 0 -5 -19 -11 -42 -15 -61 -10 -111 -28 -129 -48 -9
-10 -23 -18 -30 -18 -28 0 -149 -44 -149 -55 0 -6 -20 -19 -45 -29 -25 -11
-45 -23 -45 -27 0 -5 -12 -12 -26 -15 -15 -4 -35 -14 -45 -23 -36 -32 -49 -41
-74 -51 -14 -5 -32 -25 -41 -44 -12 -24 -26 -36 -45 -40 -16 -3 -29 -12 -29
-19 0 -8 -13 -25 -29 -38 -17 -14 -34 -43 -42 -69 -7 -25 -19 -51 -26 -58 -8
-8 -13 -40 -13 -83 l0 -69 1799 0 c990 0 1806 3 1815 6 11 4 16 19 16 50 0 24
-4 44 -9 44 -5 0 -11 18 -15 39 -3 22 -12 46 -20 53 -7 8 -17 29 -21 46 -4 20
-13 32 -23 32 -24 1 -52 24 -52 44 0 9 -13 25 -29 34 -17 9 -35 27 -40 39 -6
13 -17 23 -26 23 -8 0 -22 11 -31 25 -9 14 -26 25 -39 25 -12 0 -33 9 -46 20
-13 11 -28 23 -34 27 -12 10 -54 29 -77 37 -10 3 -18 11 -18 18 0 12 -129 58
-161 58 -6 0 -19 9 -28 19 -15 17 -74 34 -168 48 -18 3 -33 9 -33 14 0 5 -9 9
-20 9 -11 0 -20 5 -20 10 0 6 -13 10 -30 10 -16 0 -30 5 -30 10 0 6 -6 10 -13
10 -22 0 -47 39 -47 75 0 34 2 35 60 52 33 10 60 23 60 28 0 12 56 35 84 35 9
0 19 7 22 15 3 8 22 19 42 26 21 6 41 18 45 25 4 8 16 14 25 14 9 0 23 9 30
20 7 11 20 20 29 20 8 0 28 12 43 28 41 40 81 72 90 72 4 0 10 7 14 15 3 8 17
20 31 27 14 6 25 17 25 25 0 7 9 18 20 25 11 7 20 16 20 20 0 7 21 36 48 63 6
8 12 21 12 29 0 9 9 16 20 16 12 0 25 10 32 25 11 26 53 35 60 14 5 -16 155
-27 233 -17 47 7 74 16 86 29 9 10 26 19 37 19 25 0 84 30 96 49 4 7 26 31 47
52 22 22 39 48 39 58 0 12 9 21 25 25 18 5 26 15 31 41 3 19 10 35 15 35 5 0
9 14 9 30 0 17 5 30 10 30 6 0 10 25 10 55 0 30 -4 55 -10 55 -5 0 -10 -4 -10
-9 0 -17 -235 -37 -305 -27 -40 6 -48 12 -62 42 -9 18 -24 36 -33 39 -11 3
-22 26 -30 63 -8 31 -18 60 -22 63 -5 3 -11 42 -15 87 -5 68 -9 82 -23 82 -15
0 -18 17 -24 142 -4 79 -11 145 -15 148 -5 3 -14 49 -21 103 -7 53 -16 97 -21
97 -5 0 -9 18 -9 40 0 22 -4 40 -10 40 -5 0 -10 9 -10 19 0 40 -24 121 -35
121 -7 0 -15 15 -19 33 -17 87 -40 147 -58 147 -10 0 -18 5 -18 10 0 6 -9 20
-20 32 -11 12 -20 28 -20 36 0 8 -11 24 -24 36 -13 11 -26 35 -29 51 -6 32 11
105 25 105 4 0 8 9 8 19 0 11 5 21 11 23 7 2 12 121 16 364 l6 361 -33 31
c-18 18 -39 32 -46 32 -7 0 -14 6 -17 13 -6 19 -190 15 -210 -5 -9 -8 -38 -18
-66 -22 -28 -4 -51 -11 -51 -16 0 -5 -27 -14 -60 -21 -33 -6 -60 -15 -60 -19
0 -4 -21 -11 -47 -15 -27 -4 -50 -11 -54 -16 -3 -5 -42 -17 -87 -26 -51 -11
-82 -22 -82 -30 0 -7 -12 -15 -27 -19 -16 -3 -38 -9 -49 -14 -12 -5 -42 -12
-68 -15 -25 -4 -46 -11 -46 -16 0 -5 -8 -9 -17 -9 -16 0 -18 -10 -15 -103 4
-120 -10 -214 -35 -233 -26 -20 -93 -18 -93 2 0 8 7 22 15 30 8 9 15 29 15 45
0 16 5 29 10 29 6 0 10 32 10 75 0 43 -4 75 -10 75 -5 0 -10 9 -10 20 0 29
-85 110 -117 110 -15 0 -27 7 -30 18 -5 21 -84 42 -160 42 -46 0 -51 2 -57 26
-6 24 -12 34 -42 67 -6 7 -14 26 -18 42 -4 16 -13 33 -19 37 -17 10 -16 290 1
295 6 3 12 15 12 28 0 13 7 30 15 39 8 8 15 22 15 31 0 8 7 18 15 21 8 4 15
12 15 18 0 17 46 56 65 56 9 0 18 7 21 15 4 8 12 15 19 15 6 0 22 9 34 19 29
25 109 35 219 28 63 -4 89 -9 98 -21 6 -9 18 -16 27 -16 17 0 77 -55 77 -71 0
-5 6 -9 14 -9 18 0 26 -31 26 -102 0 -65 -7 -88 -26 -88 -8 0 -14 -4 -14 -10
0 -19 -44 -50 -72 -50 -15 0 -28 -4 -28 -10 0 -5 -9 -10 -20 -10 -11 0 -20 5
-20 10 0 6 -7 10 -14 10 -17 0 -66 43 -66 58 0 13 -63 42 -92 42 -12 -1 -39
-9 -58 -18 -31 -15 -35 -22 -38 -62 -4 -58 14 -114 41 -126 12 -5 26 -19 32
-31 6 -14 18 -23 32 -23 13 0 23 -4 23 -8 0 -39 315 -42 328 -3 2 6 12 11 23
11 10 0 19 6 19 14 0 16 42 46 64 46 7 0 16 10 20 23 3 12 14 32 26 44 11 12
20 27 20 33 0 5 6 10 14 10 17 0 26 51 26 146 0 90 -9 134 -26 134 -8 0 -14 9
-14 20 0 11 -4 20 -9 20 -5 0 -17 20 -27 45 -11 30 -23 45 -34 45 -10 0 -27
16 -39 35 -12 21 -28 35 -40 35 -11 0 -24 6 -28 13 -9 14 -77 37 -111 37 -11
0 -22 5 -24 12 -4 12 -218 21 -285 11z m106 -1620 c3 -5 33 -15 65 -21 33 -7
62 -16 65 -21 3 -5 22 -12 41 -16 19 -4 37 -11 40 -15 3 -4 25 -14 50 -23 32
-11 46 -21 50 -38 4 -14 16 -26 30 -29 14 -3 34 -20 45 -37 11 -18 29 -33 40
-35 11 -2 26 -15 33 -30 7 -16 24 -31 38 -34 15 -4 24 -13 24 -25 0 -10 9 -28
19 -38 10 -10 22 -33 26 -50 4 -17 11 -31 15 -31 5 0 12 -16 16 -35 3 -19 10
-35 15 -35 5 0 9 -9 9 -20 0 -11 5 -20 10 -20 6 0 10 -16 10 -35 0 -19 5 -35
10 -35 6 0 10 -50 10 -130 0 -80 -4 -130 -10 -130 -5 0 -10 -16 -10 -35 0 -19
-4 -35 -10 -35 -5 0 -10 -11 -10 -25 0 -14 -4 -25 -9 -25 -5 0 -12 -16 -15
-35 -4 -19 -11 -35 -16 -35 -4 0 -11 -13 -15 -30 -4 -16 -10 -30 -14 -30 -4 0
-14 -18 -21 -40 -7 -22 -17 -40 -21 -40 -15 0 -51 -34 -60 -57 -5 -13 -17 -23
-28 -23 -11 0 -29 -13 -41 -30 -12 -16 -27 -30 -34 -30 -7 0 -19 -11 -26 -25
-7 -14 -20 -25 -29 -25 -9 0 -29 -7 -45 -15 -15 -8 -35 -15 -43 -15 -9 0 -23
-9 -33 -20 -16 -18 -112 -50 -152 -50 -10 0 -18 -4 -18 -10 0 -5 -18 -10 -40
-10 -22 0 -40 -4 -40 -10 0 -6 -47 -10 -120 -10 -73 0 -120 4 -120 10 0 6 -16
10 -35 10 -19 0 -35 4 -35 9 0 4 -26 11 -57 15 -70 8 -123 25 -143 46 -8 9
-35 22 -59 30 -24 8 -45 20 -48 27 -3 7 -13 13 -23 13 -9 0 -41 23 -71 50 -30
28 -59 50 -66 50 -7 0 -13 5 -13 10 0 6 -11 23 -25 38 -14 15 -25 35 -25 44 0
10 -7 18 -15 18 -8 0 -15 7 -15 15 0 9 -6 18 -14 21 -8 3 -18 20 -21 37 -11
56 -16 67 -29 67 -18 0 -39 151 -38 281 0 132 18 249 38 249 8 0 14 9 14 20 0
23 20 70 30 70 4 0 10 14 14 30 3 18 12 30 21 30 9 0 18 8 21 18 19 54 31 73
51 78 12 3 33 19 45 35 13 17 38 39 56 50 17 11 32 28 32 37 0 12 19 23 63 37
34 11 71 29 82 41 14 16 42 25 98 34 42 7 77 16 77 21 0 13 66 17 239 14 91
-1 166 -7 170 -12z m-7 -1834 c57 -6 105 -15 106 -20 2 -5 16 -9 32 -9 16 0
35 -6 42 -13 7 -8 31 -16 52 -20 22 -3 42 -10 45 -15 3 -4 32 -16 63 -26 37
-11 59 -24 63 -36 3 -10 16 -20 28 -22 30 -4 44 -47 28 -87 -11 -25 -20 -31
-56 -37 -48 -7 -125 3 -125 16 0 5 -31 16 -70 26 -38 10 -70 23 -70 29 0 18
-122 36 -276 42 -162 7 -384 -19 -384 -44 0 -7 -7 -13 -15 -13 -24 0 -125 -34
-125 -42 0 -4 -16 -10 -35 -14 -19 -3 -35 -10 -35 -15 0 -16 -87 -10 -94 6 -3
8 -10 15 -16 15 -20 0 -40 28 -40 55 0 27 20 55 40 55 6 0 13 7 16 15 4 8 12
15 19 15 7 0 15 6 18 14 3 8 28 20 56 27 28 7 51 16 51 20 0 4 20 10 45 13 25
4 45 11 45 16 0 5 17 12 38 16 20 4 39 10 42 14 16 24 350 36 512 19z"/>
<path d="M2405 3045 c-5 -2 -29 -9 -52 -15 -24 -6 -43 -17 -43 -24 0 -7 -23
-19 -52 -26 -38 -11 -56 -22 -67 -42 -9 -15 -22 -28 -29 -28 -6 0 -20 -18 -29
-40 -10 -22 -21 -40 -25 -40 -5 0 -8 -5 -8 -11 0 -7 -10 -20 -22 -31 -22 -19
-23 -27 -23 -150 0 -96 3 -132 13 -135 6 -3 12 -13 12 -24 0 -10 5 -19 10 -19
6 0 10 -6 10 -14 0 -8 6 -16 14 -19 8 -3 16 -16 18 -29 2 -13 14 -28 29 -35
14 -7 31 -24 39 -38 7 -14 22 -25 32 -25 10 0 26 -9 35 -20 10 -11 30 -20 44
-20 15 0 29 -4 31 -10 4 -13 98 -30 170 -30 71 0 198 20 198 31 0 4 14 10 30
14 17 4 30 11 30 16 0 5 6 9 13 9 20 0 117 94 117 113 0 10 5 17 11 17 19 0
49 41 49 66 0 12 6 24 13 27 17 5 17 259 -1 265 -6 2 -12 12 -12 23 0 11 -7
22 -15 25 -8 4 -15 12 -15 20 0 8 -7 14 -15 14 -8 0 -15 6 -15 13 0 7 -11 23
-25 35 -14 12 -25 26 -25 31 0 6 -22 20 -50 33 -27 13 -50 28 -50 34 0 20
-136 44 -239 43 -53 0 -100 -2 -106 -4z m383 -164 c2 -6 10 -18 18 -25 15 -16
19 -76 5 -76 -5 0 -12 -13 -16 -29 -4 -21 -15 -33 -37 -40 -60 -21 -128 -8
-128 24 0 8 -7 15 -15 15 -8 0 -17 14 -21 35 -7 40 2 85 17 85 6 0 18 7 27 16
13 13 29 15 81 11 36 -3 67 -10 69 -16z"/>
</g>
</svg>
